<svg width="1342" height="345" viewBox="0 0 1342 345" fill="none" xmlns="http://www.w3.org/2000/svg">
<path d="M416.137 156.975H270.865C272.016 172.165 277.647 184.335 287.784 193.535C297.897 202.735 310.335 207.335 325.049 207.335C346.209 207.335 361.163 198.495 369.91 180.766H412.351C406.599 198.255 396.175 212.558 381.125 223.723C366.052 234.887 347.359 240.446 325.049 240.446C306.884 240.446 290.588 236.373 276.21 228.203C261.831 220.033 250.544 208.533 242.396 193.703C234.224 178.873 230.15 161.671 230.15 142.121C230.15 122.571 234.128 105.369 242.06 90.5385C249.993 75.7083 261.16 64.2562 275.538 56.2062C289.917 48.1562 306.428 44.1312 325.049 44.1312C343.669 44.1312 358.982 48.0364 373.025 55.8708C387.044 63.6812 397.996 74.6781 405.808 88.8135C413.621 102.949 417.551 119.241 417.551 137.641C417.551 144.78 417.096 151.225 416.161 156.951L416.137 156.975ZM376.452 125.23C376.212 110.735 371.036 99.1396 360.923 90.3948C350.786 81.65 338.253 77.2896 323.299 77.2896C309.712 77.2896 298.113 81.6021 288.455 90.2271C278.798 98.8521 273.046 110.52 271.201 125.254H376.452V125.23Z" fill="#5932EA"/>
<path d="M502.076 79.35V184.575C502.076 191.715 503.753 196.818 507.084 199.932C510.415 203.047 516.119 204.58 524.171 204.58H548.327V237.355H517.269C499.56 237.355 485.972 233.21 476.554 224.945C467.112 216.655 462.415 203.215 462.415 184.575V79.35H439.984V47.2698H462.415V0H502.1V47.2698H548.351V79.35H502.1H502.076Z" fill="#5932EA"/>
<path d="M854.926 53.475C866.765 59.6802 876.087 68.8802 882.869 81.075C889.65 93.2698 893.053 107.98 893.053 125.23V237.355H854.063V131.1C854.063 114.09 849.798 101.032 841.29 91.9521C832.783 82.8719 821.16 78.3198 806.446 78.3198C791.732 78.3198 780.038 82.8719 771.411 91.9521C762.783 101.032 758.47 114.09 758.47 131.1V237.355H719.48V131.1C719.48 114.09 715.214 101.032 706.707 91.9521C698.2 82.8719 686.577 78.3198 671.863 78.3198C657.149 78.3198 645.454 82.8719 636.827 91.9521C628.2 101.032 623.886 114.09 623.886 131.1V237.355H584.537V47.2698H623.886V69C630.333 61.1896 638.505 55.0802 648.378 50.7198C658.275 46.3594 668.843 44.1552 680.131 44.1552C695.324 44.1552 708.888 47.3656 720.846 53.8104C732.804 60.2552 742.006 69.575 748.453 81.7458C754.204 70.2458 763.167 61.0937 775.365 54.3135C787.563 47.5333 800.671 44.1312 814.714 44.1312C829.668 44.1312 843.064 47.2458 854.926 53.451V53.475Z" fill="#5932EA"/>
<path d="M1278.91 141.115L1340.33 237.379H1295.8L1254.73 172.859L1216.07 237.379H1175L1236.42 143.894L1175 47.2938H1219.52L1260.6 111.814L1299.25 47.2938H1340.33L1278.91 141.139V141.115Z" fill="#5932EA"/>
<path d="M934.99 201.657C945.592 201.657 954.186 193.065 954.186 182.467C954.186 171.868 945.592 163.276 934.99 163.276C924.391 163.276 915.795 171.868 915.795 182.467C915.795 193.065 924.391 201.657 934.99 201.657Z" fill="#5932EA"/>
<path d="M191.307 55.2719C203.643 55.2719 213.642 45.2748 213.642 32.9427C213.642 20.6106 203.643 10.6135 191.307 10.6135C178.972 10.6135 168.973 20.6106 168.973 32.9427C168.973 45.2748 178.972 55.2719 191.307 55.2719Z" fill="#5932EA"/>
<path d="M191.929 311.171H18.5957V343.491H191.929V311.171Z" fill="#5932EA"/>
<path d="M191.28 246.747H148.863V289.153H191.28V246.747Z" fill="#5932EA"/>
<path d="M105.059 33.6854C47.0419 33.6854 0 80.7156 0 138.719C0 196.722 47.0419 243.752 105.059 243.752C163.077 243.752 210.119 196.722 210.119 138.719C210.119 80.7156 163.077 33.6854 105.059 33.6854ZM105.371 208.869C67.0281 208.869 35.9225 177.795 35.9225 139.438C35.9225 101.08 67.0041 70.0063 105.371 70.0063C143.738 70.0063 174.819 101.08 174.819 139.438C174.819 177.795 143.738 208.869 105.371 208.869Z" fill="#5932EA"/>
<path d="M963.94 210.738L1154.43 244.423L1077.29 2.34796L941.438 143.439L967.007 168.307L1061.16 70.8208L1101.69 198.615L969.931 175.567L963.94 210.738Z" fill="#5932EA"/>
</svg>
